<svg xmlns="http://www.w3.org/2000/svg" viewBox="0 0 203 148.66"><defs><style>.cls-1{fill:#ffdc7b;}.cls-2{fill:#fff;}</style></defs><g id="Layer_2" data-name="Layer 2"><g id="Layer_1-2" data-name="Layer 1"><circle class="cls-1" cx="64.34" cy="64.34" r="26.02" transform="translate(-9.55 117.45) rotate(-80.71)"/><path class="cls-1" d="M64.34,28.43h0a3.12,3.12,0,0,1-3.12-3.12V3.12A3.12,3.12,0,0,1,64.34,0h0a3.12,3.12,0,0,1,3.12,3.12V25.31A3.11,3.11,0,0,1,64.34,28.43Z"/><path class="cls-1" d="M64.34,128.69h0a3.12,3.12,0,0,1-3.12-3.12v-22.2a3.12,3.12,0,0,1,3.12-3.12h0a3.12,3.12,0,0,1,3.12,3.12v22.2A3.12,3.12,0,0,1,64.34,128.69Z"/><path class="cls-1" d="M89.74,39h0a3.11,3.11,0,0,1,0-4.41l15.69-15.69a3.11,3.11,0,0,1,4.41,0h0a3.11,3.11,0,0,1,0,4.41L94.15,39A3.11,3.11,0,0,1,89.74,39Z"/><path class="cls-1" d="M18.85,109.84h0a3.11,3.11,0,0,1,0-4.41L34.54,89.74a3.11,3.11,0,0,1,4.41,0h0a3.11,3.11,0,0,1,0,4.41L23.26,109.84A3.11,3.11,0,0,1,18.85,109.84Z"/><path class="cls-1" d="M100.25,64.34h0a3.12,3.12,0,0,1,3.12-3.12h22.2a3.12,3.12,0,0,1,3.12,3.12h0a3.12,3.12,0,0,1-3.12,3.12h-22.2A3.12,3.12,0,0,1,100.25,64.34Z"/><path class="cls-1" d="M0,64.34H0a3.12,3.12,0,0,1,3.12-3.12H25.31a3.12,3.12,0,0,1,3.12,3.12h0a3.11,3.11,0,0,1-3.12,3.12H3.12A3.12,3.12,0,0,1,0,64.34Z"/><path class="cls-1" d="M89.74,89.74h0a3.11,3.11,0,0,1,4.41,0l15.69,15.69a3.11,3.11,0,0,1,0,4.41h0a3.11,3.11,0,0,1-4.41,0L89.74,94.15A3.11,3.11,0,0,1,89.74,89.74Z"/><path class="cls-1" d="M18.85,18.85h0a3.11,3.11,0,0,1,4.41,0L39,34.54A3.11,3.11,0,0,1,39,39h0a3.11,3.11,0,0,1-4.41,0L18.85,23.26A3.11,3.11,0,0,1,18.85,18.85Z"/><path class="cls-2" d="M183.58,109.83l-.24,0a29.32,29.32,0,0,0-42.52-36.47A40.83,40.83,0,0,0,62.23,88.9a41.62,41.62,0,0,0,.34,5h-.34a27.38,27.38,0,0,0,0,54.75H183.58a19.42,19.42,0,1,0,0-38.83Z"/></g></g></svg>